<svg xmlns="http://www.w3.org/2000/svg" viewBox="0 0 500 500"><g id="freepik--Character--inject-2"><path d="M221.37,229.16l5,84.82c.86,14.42,5.07,35.43,27.81,33h0c19.57-3.57,23.46-22.63,22.65-36.09-.39-6.38-.7-11.71-.7-12.36,0,0,21.48-3.32,21.76-24.78.14-10.38-1.31-31.76-2.85-51.1a40,40,0,0,0-39.83-36.78h-2.07C230.85,187.19,219.47,206.87,221.37,229.16Z" style="fill:#ffbf9d"></path><path d="M276.18,298.57s-13.53.78-27.93-8.29c0,0,6.8,15.68,28.22,13.77Z" style="fill:#ff9a6c"></path><path d="M259.24,234.06c-.39.46-3-1.34-6.58-1.18s-6.12,2.11-6.53,1.67c-.2-.19.19-1,1.29-1.91a9,9,0,0,1,5.21-1.89,8.64,8.64,0,0,1,5.26,1.5C259,233.07,259.44,233.85,259.24,234.06Z" style="fill:#263238"></path><path d="M256.56,244.45a2.89,2.89,0,0,1-2.8,2.92,2.76,2.76,0,0,1-3-2.61,2.91,2.91,0,0,1,2.79-2.93A2.78,2.78,0,0,1,256.56,244.45Z" style="fill:#263238"></path><path d="M270,258.28c0-.19,2-.54,5.36-1,.84-.09,1.64-.26,1.78-.83a4.26,4.26,0,0,0-.56-2.5l-2.49-6.41c-3.45-9.14-5.94-16.65-5.57-16.78s3.46,7.15,6.91,16.29c.83,2.25,1.63,4.4,2.38,6.45a4.83,4.83,0,0,1,.43,3.31,2.1,2.1,0,0,1-1.38,1.23,6.26,6.26,0,0,1-1.43.2C272.07,258.45,270,258.47,270,258.28Z" style="fill:#263238"></path><path d="M259.29,222.74c-.36.79-3.22.11-6.65.19s-6.29.76-6.66,0c-.17-.37.39-1.09,1.57-1.77a11,11,0,0,1,5.07-1.27A10.75,10.75,0,0,1,257.7,221C258.89,221.66,259.45,222.37,259.29,222.74Z" style="fill:#263238"></path><path d="M292.05,227.91c-.33.67-3.17.15-6.56.29s-6.16.78-6.56.13c-.18-.31.33-.93,1.47-1.53a11.85,11.85,0,0,1,4.94-1.19,12.27,12.27,0,0,1,5.06.87C291.61,227,292.19,227.59,292.05,227.91Z" style="fill:#263238"></path><path d="M223.1,245.05c-.36-.15-14.74-4.37-14.29,10.3s15.1,11.19,15.11,10.77S223.1,245.05,223.1,245.05Z" style="fill:#ffbf9d"></path><path d="M219.27,260.7c-.07,0-.25.19-.68.4a2.55,2.55,0,0,1-1.91.1c-1.57-.52-3-2.94-3.1-5.59a8.44,8.44,0,0,1,.6-3.68,2.94,2.94,0,0,1,1.86-2,1.31,1.31,0,0,1,1.53.65c.21.41.13.7.21.73s.3-.26.17-.86a1.65,1.65,0,0,0-.61-.9,1.88,1.88,0,0,0-1.42-.33,3.57,3.57,0,0,0-2.6,2.36,8.61,8.61,0,0,0-.76,4.11c.18,3,1.78,5.68,3.92,6.23a2.78,2.78,0,0,0,2.33-.47C219.25,261.06,219.32,260.73,219.27,260.7Z" style="fill:#ff9a6c"></path><path d="M201.94,222.77c2.68-5.38,2.95-11.59,4.2-17.47s4-12.07,9.53-14.49l.13.05c4.92-2.41,11.17-2.89,15.59.33.48-7.68,6.71-14.18,14-16.66s19.28-2.18,26.6.17c5.66,1.82,11.31,6,18.26,12.18a71.79,71.79,0,0,1,8.12,8.51l7.89,19.47-4.78,10.84c-.28.74-.57,1.47-.93,2.21v0l-3.4,22.39c-.75-6-1.82-26.91-2.57-32.9a33.6,33.6,0,0,1-24.66-9.3c-3.54-3.4-6.45-7.77-11-9.62-5.85-2.4-12.45.13-18.26,2.63l.23-.25a26.88,26.88,0,0,0-7.83,6.56,83.52,83.52,0,0,1-1.07,35.5c-.44,1.75-1.71,5.37-3.33,6.13-3.2,1.51-4.32-1.77-6.43-3.41-1.55-1.2-3.72-1.21-6.08-1A131.53,131.53,0,0,1,211,229.66a13.41,13.41,0,0,1-6.11.85l1.56-4.66a6.93,6.93,0,0,1-2.54,1.38,2.38,2.38,0,0,1-2.57-.91C200.72,225.24,201.38,223.89,201.94,222.77Z" style="fill:#263238"></path><path d="M238.28,193.16a17.13,17.13,0,0,0-2,2.11,15.33,15.33,0,0,0-2.77,7.32,27.79,27.79,0,0,0-.15,5.46c.13,2,.44,4.06.75,6.27a58.37,58.37,0,0,1,.67,7,26,26,0,0,1-.22,3.72,7.71,7.71,0,0,1-1.25,3.69,3.22,3.22,0,0,1-2.94,1.23,4.81,4.81,0,0,1-2.82-1.33c-1.49-1.51-2-3.52-2.44-5.28l.45,0a17.87,17.87,0,0,1-2.28,4.66,6.38,6.38,0,0,1-4,2.56,4.19,4.19,0,0,1-2.23-.23,3.48,3.48,0,0,1-1.6-1.37,3.55,3.55,0,0,1-.59-1.85,2.65,2.65,0,0,1,.56-1.71l.24.18A13.53,13.53,0,0,1,210,230a3,3,0,0,1-.5.16,2.07,2.07,0,0,1,.46-.24c.31-.15.77-.38,1.34-.72a14.13,14.13,0,0,0,4.17-3.81l.24.19a2.74,2.74,0,0,0,.09,3.18,3.14,3.14,0,0,0,1.44,1.2,3.71,3.71,0,0,0,2,.19,6,6,0,0,0,3.7-2.43,17.5,17.5,0,0,0,2.18-4.56l.26-.7.2.73c.47,1.76,1,3.69,2.33,5a4.28,4.28,0,0,0,2.52,1.19,2.7,2.7,0,0,0,2.5-1,7.3,7.3,0,0,0,1.15-3.45,25,25,0,0,0,.22-3.65,56.24,56.24,0,0,0-.64-6.93c-.29-2.21-.59-4.31-.71-6.3a27.57,27.57,0,0,1,.22-5.54,15.14,15.14,0,0,1,3-7.39A8.73,8.73,0,0,1,238.28,193.16Z" style="fill:#455a64"></path><path d="M305.79,209.17a1.28,1.28,0,0,1-.16.15l-.51.43a7.32,7.32,0,0,1-.86.65,11.61,11.61,0,0,1-1.25.77,18.85,18.85,0,0,1-9,2.3,24.24,24.24,0,0,1-13.23-3.82,42.06,42.06,0,0,1-12-12c-1.74-2.47-3.19-5-4.76-7.38a28.49,28.49,0,0,0-5.24-6.15,14.61,14.61,0,0,0-6.42-3.29,10.65,10.65,0,0,0-3.27-.14,11.31,11.31,0,0,0-2.92.79,12.38,12.38,0,0,0-6.44,6.29,14.18,14.18,0,0,0-.87,3.28s0-.07,0-.22,0-.4,0-.66a10.42,10.42,0,0,1,.64-2.47,12.09,12.09,0,0,1,2.15-3.41,12.56,12.56,0,0,1,4.33-3.14,11.88,11.88,0,0,1,3-.84,10.51,10.51,0,0,1,3.39.12,15,15,0,0,1,6.64,3.34,28.48,28.48,0,0,1,5.34,6.23c1.59,2.36,3.05,4.92,4.77,7.36A41.91,41.91,0,0,0,281,209.25a24.06,24.06,0,0,0,13,3.87,19.3,19.3,0,0,0,8.93-2.12A30.64,30.64,0,0,0,305.79,209.17Z" style="fill:#455a64"></path><path d="M291.92,233.06c-.39.46-3-1.34-6.58-1.18s-6.12,2.11-6.53,1.67c-.2-.19.19-1,1.29-1.91a9,9,0,0,1,5.21-1.89,8.64,8.64,0,0,1,5.26,1.5C291.71,232.06,292.12,232.85,291.92,233.06Z" style="fill:#263238"></path><path d="M287,243.77a2.89,2.89,0,0,1-2.8,2.92,2.76,2.76,0,0,1-3-2.61,2.91,2.91,0,0,1,2.79-2.93A2.78,2.78,0,0,1,287,243.77Z" style="fill:#263238"></path><path d="M296.39,193.06c2,2.29,4.89,4.31,7.86,3.81a21.53,21.53,0,0,0,3.13-1.12c1.08.57,1.05,4.17.39,5.2a18.69,18.69,0,0,1-2.11,2.45c3.63,1.68,6.77.56,10.43-1a18.39,18.39,0,0,1-10,15.37c-1.84.9-4.1,1.47-5.89.46-1.57-.89-2.3-2.73-2.86-4.44a80.47,80.47,0,0,1-3.79-19.48Z" style="fill:#263238"></path><polygon points="287.58 310.51 275.28 305.97 228.24 304.58 217.32 307.55 218.75 334.15 243.44 349.9 267.38 349.42 282.44 335.7 285.78 322.11 287.58 310.51" style="fill:#ffbf9d"></polygon><path d="M148,351.27a160,160,0,0,1,9.85-17.6,40.64,40.64,0,0,1,25.34-17.83l39.48-10.7s2.68,26.62,29.82,26.62,27.7-24.66,27.7-24.66l49.7,18.17c1.57.61,12.16,4.28,24.49,30.71,11.74,25.17,16.87,38,16.87,38l-46.88,12.6-3.11,43.31,1,24.17-142.82-.32.8-27.63-.65-45.68-3,5.63-44.58-17.88S136.48,375.07,148,351.27Z" style="fill:#455a64"></path><path d="M179,376.84c-.21,0-.08,15.31.29,34.18s.83,34.16,1,34.16.08-15.3-.29-34.18S179.16,376.84,179,376.84Z" style="fill:#263238"></path><g style="opacity:0.30000000000000004"><path d="M318.09,381.3c-2.22-2.44-5.67-3.25-8.9-3.91-36.75-7.55-74.64-4.36-111.87.3-4.62.57-9.72,1.55-12.51,5.28-2,2.69-.72,6.27-.91,9.63-1,17.25,1.28,35.63,4.69,52.58l126.82-2c4.34-13.14,5.4-35.43,5.46-50.58C320.89,388.6,320.76,384.23,318.09,381.3Z"></path></g><path d="M326.34,361.39a3,3,0,0,1,0,.65v1.86c0,1.61-.05,3.94-.12,6.83-.14,5.77-.45,13.74-.93,22.53s-1.06,16.75-1.52,22.5c-.24,2.83-.44,5.13-.58,6.81-.08.76-.15,1.37-.19,1.85a2.6,2.6,0,0,1-.11.64,2.67,2.67,0,0,1,0-.65c0-.48.05-1.09.08-1.85.11-1.68.25-4,.42-6.82.35-5.83.83-13.75,1.35-22.51s.85-16.75,1.1-22.51c.12-2.83.22-5.15.29-6.83,0-.76.07-1.37.1-1.86A3,3,0,0,1,326.34,361.39Z" style="fill:#263238"></path><path d="M367.23,395.21l19.13,38.41a28,28,0,0,1,2.91,13.85h0a28,28,0,0,1-28,26.64l-54.88-3.18-2.39-25,41.76-10.07-16.18-30.58Z" style="fill:#ffbf9d"></path><path d="M345.79,435.82c0,.17,1.9-.14,4.92-.12a37.77,37.77,0,0,1,11.58,2,35.27,35.27,0,0,1,10.36,5.5c2.38,1.88,3.5,3.42,3.63,3.31s-.19-.44-.69-1.15a18.84,18.84,0,0,0-2.51-2.67,31.16,31.16,0,0,0-10.49-5.89A33.15,33.15,0,0,0,350.7,435a24.14,24.14,0,0,0-3.62.42C346.23,435.63,345.77,435.76,345.79,435.82Z" style="fill:#ff9a6c"></path><path d="M132.79,388.6s-10.31,28.81-23.25,60.87a13.27,13.27,0,0,0-.62,2c-2,8.66,4.65,23.24,13.52,23.24l74.31-.73V449.66l-42.84-9.4,16.53-36.56Z" style="fill:#ffbf9d"></path><path d="M120.59,446.92c.1.12,1.56-1,4.15-2.52a38.83,38.83,0,0,1,22.34-5c3,.22,4.79.64,4.83.48s-.42-.22-1.24-.46a24.48,24.48,0,0,0-3.52-.69,34.46,34.46,0,0,0-22.76,5.15,24.35,24.35,0,0,0-2.88,2.14C120.87,446.53,120.55,446.87,120.59,446.92Z" style="fill:#ff9a6c"></path><path d="M314.77,444.43H304s-24.25-8.75-29.23-7.92c-4.49.76-20.93,11.68-24.15,13.84a2,2,0,0,0-.78,1h0a3.53,3.53,0,0,0,2,4.48l.34.14-.14.49a5.53,5.53,0,0,0-.25,2,2.37,2.37,0,0,0,4.4,1l-.62,1.1a2.72,2.72,0,0,0-.34,1.48l.06,1a2.67,2.67,0,0,0,1.85,2.41h0a2.68,2.68,0,0,0,2.82-.74c2.09-2.29,6.59-6.89,9.64-7.39a71.94,71.94,0,0,1,10-.5,3.37,3.37,0,0,1,3.13,2.15h0c-1.81.13-14.41,6.7-18.87,9.05a4.79,4.79,0,0,0-2.59,3.59c-.16,1.39.54,2.86,3.3,2.21,5.93-1.38,16.59-6.28,16.59-6.28s5.49-1.57,9.06.94c5,3.54,7.3,4.83,11.6,3.4a36,36,0,0,0,7.48-3.47l8.47-.84S325.73,447.5,314.77,444.43Z" style="fill:#ffbf9d"></path><path d="M282.76,448.53c0,.09-1.72-.45-4.56-.63a23.5,23.5,0,0,0-19.59,8.36c-1.83,2.17-2.61,3.77-2.7,3.72a6.56,6.56,0,0,1,.54-1.12,21,21,0,0,1,1.91-2.81,22.83,22.83,0,0,1,19.87-8.48,20.87,20.87,0,0,1,3.34.57A5.37,5.37,0,0,1,282.76,448.53Z" style="fill:#ffbf9d"></path><path d="M280.19,442.64a20.12,20.12,0,0,0-4.74-.83,20.77,20.77,0,0,0-11,3.13,44.19,44.19,0,0,0-8.88,7.51L253.1,455a6.51,6.51,0,0,1-.93.92,7.4,7.4,0,0,1,.8-1c.54-.64,1.32-1.57,2.33-2.69a40.74,40.74,0,0,1,8.89-7.69,20.23,20.23,0,0,1,11.27-3.05,13.73,13.73,0,0,1,3.52.64,9,9,0,0,1,.91.35A1,1,0,0,1,280.19,442.64Z" style="fill:#ffbf9d"></path><path d="M181,445.19h10.74S216,436.43,221,437.27c4.49.75,20.92,11.67,24.14,13.83a2.08,2.08,0,0,1,.78,1h0a3.52,3.52,0,0,1-2,4.48l-.34.14.15.49a6,6,0,0,1,.25,2,2.37,2.37,0,0,1-4.41,1l.62,1.1a2.8,2.8,0,0,1,.35,1.47l-.06,1a2.7,2.7,0,0,1-1.86,2.42h0a2.68,2.68,0,0,1-2.82-.74c-2.08-2.29-6.59-6.89-9.63-7.39a69,69,0,0,0-9.95-.5,3.36,3.36,0,0,0-3.13,2.15h0c1.81.13,14.4,6.7,18.86,9.05a4.77,4.77,0,0,1,2.59,3.59c.17,1.39-.54,2.85-3.3,2.21-5.92-1.38-16.58-6.28-16.58-6.28s-5.5-1.57-9.06.94c-5,3.53-7.3,4.83-11.61,3.4a36.07,36.07,0,0,1-7.47-3.47l-8.48-.85S170.06,448.26,181,445.19Z" style="fill:#ffbf9d"></path><path d="M213,449.29a44.75,44.75,0,0,1,4.55-.64,23.55,23.55,0,0,1,19.6,8.37c1.83,2.17,2.61,3.77,2.69,3.72a5.7,5.7,0,0,0-.54-1.12,20.73,20.73,0,0,0-1.9-2.81,22.83,22.83,0,0,0-19.87-8.48,19.94,19.94,0,0,0-3.35.57A5.38,5.38,0,0,0,213,449.29Z" style="fill:#ffbf9d"></path><path d="M215.6,443.4a19.36,19.36,0,0,1,4.74-.83,20.69,20.69,0,0,1,11,3.12,44.33,44.33,0,0,1,8.89,7.52l2.43,2.59a8.12,8.12,0,0,0,.93.92,6.74,6.74,0,0,0-.79-1c-.54-.65-1.33-1.57-2.34-2.69a40.66,40.66,0,0,0-8.88-7.69,20.18,20.18,0,0,0-11.28-3.05,13.82,13.82,0,0,0-3.52.64,8.62,8.62,0,0,0-.9.35C215.69,443.33,215.59,443.38,215.6,443.4Z" style="fill:#ffbf9d"></path><path d="M198,474.77H321.34a6.54,6.54,0,0,0,6.54-6.26l3.7-84.88a6.54,6.54,0,0,0-6.53-6.83H194.57a6.55,6.55,0,0,0-6.54,6.81l3.46,84.88A6.54,6.54,0,0,0,198,474.77Z" style="fill:#e0e0e0"></path><path d="M198,474.77h-.3a6.07,6.07,0,0,1-.9-.08,6.62,6.62,0,0,1-3.16-1.51,6.72,6.72,0,0,1-2.29-5.12q-.15-3.4-.34-7.81c-.51-11.76-1.23-28.76-2.13-49.76L188.22,394q-.18-4.31-.36-8.77c0-.76-.09-1.48-.06-2.27a6.89,6.89,0,0,1,.53-2.28,6.79,6.79,0,0,1,3.2-3.4,6.88,6.88,0,0,1,2.3-.69c.82-.07,1.58,0,2.38,0H231l90.45,0h3a7.82,7.82,0,0,1,3.05.47,6.85,6.85,0,0,1,4.09,4.41,8.08,8.08,0,0,1,.25,3l-.13,2.95c-.09,2-.17,3.93-.26,5.88q-.51,11.72-1,23.06c-.66,15.11-1.3,29.7-1.92,43.59-.07,1.73-.15,3.46-.22,5.17l-.12,2.56a9.22,9.22,0,0,1-.34,2.59,6.8,6.8,0,0,1-3.23,4,6.7,6.7,0,0,1-2.46.79c-.87.09-1.68,0-2.51,0H300.49l-34.39,0-49.81-.09-13.54-.06-3.52,0c-.8,0-1.2,0-1.2,0l1.2,0,3.52,0,13.54-.06,49.81-.09,34.39,0h19.16c.82,0,1.67,0,2.45-.05a6.45,6.45,0,0,0,2.26-.73,6.3,6.3,0,0,0,3-3.67,8.9,8.9,0,0,0,.31-2.45c0-.85.08-1.7.11-2.56.08-1.72.15-3.44.23-5.18.6-13.89,1.23-28.47,1.88-43.59q.5-11.34,1-23.06.12-2.93.26-5.87l.12-3a7.44,7.44,0,0,0-.22-2.84,6.28,6.28,0,0,0-3.73-4,7.08,7.08,0,0,0-2.84-.42h-3l-90.45,0h-34.8c-.78,0-1.59,0-2.32,0a6.37,6.37,0,0,0-2.14.63,6.24,6.24,0,0,0-3,3.15,6.44,6.44,0,0,0-.5,2.11c0,.72,0,1.49.05,2.23q.18,4.47.35,8.77c.23,5.73.45,11.24.66,16.49.81,21,1.47,38,1.93,49.77.11,2.94.2,5.55.29,7.81a6.6,6.6,0,0,0,2.19,5,6.52,6.52,0,0,0,3.09,1.54C197.62,474.78,198,474.74,198,474.77Z" style="fill:#263238"></path><path d="M253.06,427.28a6.76,6.76,0,1,0,6.76-6.75A6.76,6.76,0,0,0,253.06,427.28Z" style="fill:#fff"></path><path d="M271.22,270.21c0,.12-.78.47-2.2.46a8.57,8.57,0,0,1-8.13-6.36c-.35-1.37-.21-2.24-.09-2.25s.29.82.79,2a9.31,9.31,0,0,0,7.49,5.85C270.36,270.13,271.2,270.05,271.22,270.21Z" style="fill:#263238"></path></g></svg>