<svg version="1.2" xmlns="http://www.w3.org/2000/svg" viewBox="0 0 298 321" width="298" height="321">
	<title>programmer-svg</title>
	<style>
		.s0 { fill: #ffbf9d } 
		.s1 { fill: #ff9a6c } 
		.s2 { fill: #263238 } 
		.s3 { fill: #455a64 } 
		.s4 { fill: #000000 } 
		.s5 { fill: #e0e0e0 } 
		.s6 { fill: #ffffff } 
	</style>
	<g id="freepik--Character--inject-2">
		<path id="Layer" class="s0" d="m153.1 27.9h2.1c5 0 9.9 0.9 14.6 2.7 4.6 1.8 8.8 4.5 12.5 7.9 3.7 3.4 6.7 7.4 8.8 11.9 2.2 4.4 3.5 9.3 3.9 14.3 1.6 19.3 3 40.7 2.9 51-0.3 21.5-21.8 24.8-21.8 24.8 0 0.7 0.3 6 0.7 12.4 0.8 13.5-3 32.5-22.6 36.1-22.8 2.4-27-18.6-27.8-33l-5-84.8c-1.9-22.3 9.5-42 31.7-43.3z"/>
		<path id="Layer" class="s1" d="m176.5 146c-21.4 2-28.3-13.7-28.3-13.7 14.5 9 28 8.3 28 8.3z"/>
		<path id="Layer" class="s2" d="m159.2 76.1c-0.3 0.4-3-1.4-6.5-1.2-3.6 0.1-6.2 2.1-6.6 1.6-0.2-0.1 0.2-1 1.3-1.9q0.6-0.4 1.2-0.7 0.6-0.4 1.3-0.6 0.6-0.3 1.3-0.4 0.7-0.1 1.4-0.1 0.7-0.1 1.4 0 0.7 0.1 1.4 0.3 0.7 0.2 1.3 0.5 0.6 0.3 1.2 0.7c1.1 0.8 1.5 1.5 1.3 1.8z"/>
		<path id="Layer" class="s2" d="m156.6 86.4q0 0.6-0.2 1.1-0.3 0.6-0.6 1-0.4 0.4-1 0.6-0.5 0.3-1 0.3-0.6 0-1.1-0.2-0.6-0.1-1-0.5-0.4-0.4-0.7-0.9-0.2-0.5-0.2-1 0-0.6 0.2-1.1 0.2-0.6 0.6-1 0.4-0.4 0.9-0.6 0.5-0.2 1-0.3 0.6 0 1.1 0.2 0.6 0.1 1 0.5 0.4 0.4 0.7 0.9 0.2 0.5 0.3 1z"/>
		<path id="Layer" class="s2" d="m170 100.3c0-0.2 2-0.6 5.4-1 0.8-0.1 1.6-0.3 1.7-0.9q0.1-0.3 0-0.6 0-0.3 0-0.6-0.1-0.4-0.2-0.7-0.2-0.3-0.3-0.6l-2.5-6.4c-3.5-9.1-6-16.6-5.6-16.7 0.4-0.2 3.5 7.1 6.9 16.2q1.3 3.4 2.4 6.5 0.2 0.4 0.3 0.8 0.2 0.4 0.2 0.8 0.1 0.4 0.1 0.9-0.1 0.4-0.2 0.8-0.1 0.2-0.2 0.4-0.1 0.2-0.3 0.4-0.2 0.1-0.4 0.3-0.2 0.1-0.4 0.1-0.2 0.1-0.4 0.1-0.2 0.1-0.3 0.1-0.2 0-0.4 0-0.2 0-0.4 0c-3.3 0.2-5.4 0.3-5.4 0.1z"/>
		<path id="Layer" class="s2" d="m159.3 64.7c-0.4 0.8-3.2 0.2-6.7 0.2-3.4 0.1-6.2 0.8-6.6 0-0.2-0.3 0.4-1.1 1.5-1.7q0.6-0.3 1.3-0.6 0.6-0.2 1.2-0.4 0.6-0.1 1.3-0.2 0.7-0.1 1.3-0.1 0.7 0 1.3 0 0.7 0.1 1.3 0.2 0.7 0.2 1.3 0.4 0.6 0.2 1.2 0.5c1.2 0.7 1.7 1.4 1.6 1.7z"/>
		<path id="Layer" class="s2" d="m192.1 69.9c-0.4 0.7-3.2 0.2-6.6 0.3-3.4 0.1-6.2 0.8-6.6 0.1-0.1-0.3 0.4-0.9 1.5-1.5q0.6-0.3 1.2-0.5 0.6-0.2 1.2-0.4 0.6-0.1 1.3-0.2 0.6-0.1 1.2-0.1 0.7 0 1.3 0 0.7 0.1 1.3 0.2 0.7 0.1 1.3 0.3 0.6 0.1 1.2 0.4c1.2 0.5 1.8 1.1 1.7 1.4z"/>
		<path id="Layer" class="s0" d="m123.9 108.1c0 0.4-14.6 3.9-15.1-10.7-0.4-14.7 13.9-10.5 14.3-10.3 0 0 0.8 20.6 0.8 21z"/>
		<path id="Layer" class="s1" d="m118.8 103.4q-0.2 0.2-0.5 0.4-0.3 0.1-0.6 0.1-0.3 0.1-0.6 0.1-0.3 0-0.6-0.1c-2.2-0.5-3.8-3.2-3.9-6.2q-0.1-0.5 0-1.1 0-0.5 0.1-1 0.1-0.5 0.2-1 0.2-0.5 0.4-1 0.2-0.5 0.4-0.8 0.3-0.4 0.6-0.7 0.4-0.4 0.8-0.6 0.4-0.2 0.8-0.3 0.2 0 0.4 0 0.2 0 0.4 0 0.1 0.1 0.3 0.2 0.2 0 0.3 0.1 0.2 0.1 0.2 0.2 0.1 0.1 0.2 0.2 0.1 0.2 0.2 0.3 0 0.1 0.1 0.2c0.1 0.6-0.1 0.9-0.2 0.9-0.1 0 0-0.3-0.2-0.7q-0.1-0.2-0.3-0.4-0.2-0.1-0.4-0.2-0.2-0.1-0.4-0.1-0.2 0-0.5 0-0.3 0.1-0.6 0.3-0.3 0.2-0.5 0.5-0.3 0.3-0.5 0.6-0.1 0.3-0.2 0.6-0.2 0.5-0.3 0.9-0.2 0.5-0.2 0.9-0.1 0.5-0.1 1 0 0.4 0 0.9c0.1 2.7 1.5 5.1 3.1 5.6q0.2 0.1 0.5 0.1 0.2 0 0.4 0 0.3 0 0.5 0 0.3-0.1 0.5-0.2c0.4-0.2 0.6-0.4 0.7-0.4 0 0 0 0.4-0.5 0.7z"/>
		<path id="Layer" class="s2" d="m101.9 64.8c2.7-5.4 3-11.6 4.2-17.5 1.3-5.9 4-12.1 9.6-14.5l0.1 0.1c4.9-2.4 11.2-2.9 15.6 0.3 0.5-7.7 6.7-14.2 14-16.7 7.3-2.4 19.3-2.1 26.6 0.2 5.7 1.8 11.3 6 18.2 12.2q1.2 1 2.2 2 1.1 1 2.1 2.1 1 1 2 2.1 0.9 1.1 1.9 2.3l7.9 19.5-4.8 10.8q-0.4 1.1-0.9 2.2l-3.4 22.4c-0.8-6-1.9-26.9-2.6-32.9q-3.4 0.1-6.8-0.4-3.3-0.5-6.5-1.7-3.2-1.2-6.1-3-2.8-1.9-5.3-4.2c-3.5-3.4-6.4-7.8-11-9.6-5.8-2.4-12.4 0.1-18.2 2.6l0.2-0.2q-1.1 0.6-2.2 1.3-1.1 0.7-2 1.6-1 0.8-1.9 1.7-0.9 0.9-1.7 1.9 0.8 4.4 1.1 8.9 0.4 4.5 0.2 8.9-0.1 4.5-0.7 8.9-0.6 4.5-1.7 8.8c-0.4 1.8-1.7 5.4-3.3 6.1-3.2 1.6-4.4-1.7-6.5-3.4-1.5-1.2-3.7-1.2-6.1-1q-0.7-1.8-1.4-3.6-0.7-1.9-1.4-3.8-0.6-1.8-1.2-3.7-0.6-1.9-1.1-3.8-0.7 0.2-1.5 0.4-0.7 0.2-1.5 0.3-0.8 0.1-1.6 0.2-0.7 0-1.5-0.1l1.5-4.7q-0.2 0.3-0.5 0.5-0.3 0.2-0.6 0.4-0.4 0.1-0.7 0.3-0.3 0.1-0.7 0.2-0.3 0.1-0.7 0.1-0.4 0-0.7-0.1-0.4-0.1-0.7-0.4-0.2-0.2-0.5-0.5c-0.6-1.1 0.1-2.4 0.6-3.5z"/>
		<path id="Layer" class="s3" d="m138.3 35.2q-0.3 0.2-0.6 0.5-0.2 0.2-0.5 0.5-0.2 0.2-0.5 0.5-0.2 0.3-0.4 0.6-0.6 0.8-1.1 1.7-0.4 0.8-0.8 1.8-0.3 0.9-0.6 1.8-0.2 1-0.3 2-0.1 0.7-0.1 1.4-0.1 0.6-0.1 1.3 0 0.7 0 1.4 0 0.7 0.1 1.3c0.1 2.1 0.4 4.1 0.7 6.3q0.1 0.9 0.3 1.8 0.1 0.8 0.2 1.7 0 0.9 0.1 1.8 0 0.8 0.1 1.7 0 0.5 0 1 0 0.4-0.1 0.9 0 0.4 0 0.9-0.1 0.5-0.1 0.9-0.1 0.5-0.2 1-0.1 0.5-0.2 1-0.2 0.4-0.4 0.9-0.2 0.4-0.5 0.8-0.2 0.4-0.6 0.6-0.3 0.3-0.7 0.4-0.4 0.2-0.8 0.3-0.4 0-0.8 0-0.4-0.1-0.8-0.2-0.4-0.1-0.8-0.3-0.3-0.1-0.6-0.4-0.4-0.2-0.7-0.5c-1.4-1.5-2-3.5-2.4-5.3h0.5q-0.2 0.7-0.5 1.3-0.2 0.6-0.5 1.2-0.3 0.5-0.6 1.1-0.4 0.6-0.7 1.1-0.4 0.5-0.8 0.9-0.5 0.4-1 0.8-0.5 0.3-1.1 0.5-0.5 0.3-1.1 0.4-0.3 0-0.6 0-0.3 0-0.6 0-0.2 0-0.5-0.1-0.3-0.1-0.6-0.2-0.2-0.1-0.4-0.2-0.3-0.1-0.5-0.3-0.2-0.2-0.3-0.4-0.2-0.2-0.3-0.4-0.2-0.2-0.3-0.5-0.1-0.2-0.2-0.4 0-0.2-0.1-0.5 0-0.2 0-0.5 0-0.2 0-0.4 0-0.3 0.1-0.5 0.1-0.2 0.2-0.4 0.1-0.2 0.2-0.4l0.3 0.2q-0.6 0.7-1.2 1.4-0.7 0.6-1.4 1.2-0.7 0.5-1.5 1-0.8 0.5-1.6 0.8-0.1 0-0.1 0-0.1 0.1-0.1 0.1-0.1 0-0.2 0 0 0-0.1 0.1 0.1-0.1 0.1-0.1 0.1 0 0.1-0.1 0.1 0 0.1 0 0.1-0.1 0.2-0.1 0.4-0.2 1.3-0.7 0.6-0.4 1.2-0.8 0.6-0.4 1.1-0.9 0.5-0.5 1-1 0.5-0.5 0.9-1.1l0.2 0.2q-0.2 0.3-0.3 0.7-0.2 0.5-0.2 0.9 0.1 0.4 0.2 0.8 0.1 0.4 0.4 0.8 0.1 0.2 0.3 0.3 0.1 0.2 0.3 0.4 0.2 0.1 0.4 0.2 0.2 0.2 0.4 0.3 0.3 0.1 0.5 0.1 0.3 0.1 0.5 0.1 0.3 0 0.5 0 0.3 0 0.5-0.1 0.6-0.1 1.1-0.3 0.5-0.2 1-0.5 0.5-0.3 0.9-0.7 0.4-0.4 0.7-0.9 0.4-0.5 0.7-1.1 0.3-0.5 0.6-1.1 0.3-0.6 0.5-1.1 0.2-0.6 0.4-1.2l0.3-0.7 0.2 0.7c0.4 1.7 1 3.7 2.3 5q0.3 0.2 0.6 0.4 0.2 0.2 0.6 0.4 0.3 0.1 0.6 0.2 0.4 0.1 0.7 0.2 0.4 0 0.7 0 0.4-0.1 0.7-0.2 0.3-0.1 0.6-0.3 0.3-0.2 0.5-0.5 0.3-0.4 0.5-0.8 0.2-0.4 0.3-0.9 0.2-0.4 0.3-0.9 0-0.4 0.1-0.9 0-0.4 0.1-0.9 0-0.4 0.1-0.9 0-0.4 0-0.9 0-0.5 0-0.9 0-0.9-0.1-1.8 0-0.8-0.1-1.7-0.1-0.9-0.2-1.7-0.1-0.9-0.2-1.7c-0.3-2.3-0.6-4.4-0.7-6.4q-0.1-0.6-0.1-1.3 0-0.7 0-1.4 0-0.7 0.1-1.4 0.1-0.7 0.2-1.4 0.1-1 0.3-2 0.3-0.9 0.7-1.9 0.4-0.9 0.9-1.8 0.5-0.9 1.1-1.7 0.2-0.3 0.4-0.5 0.3-0.3 0.5-0.5 0.3-0.3 0.6-0.5 0.3-0.2 0.6-0.4z"/>
		<path id="Layer" class="s3" d="m205.8 51.2q0 0 0 0-0.1 0-0.1 0 0 0.1 0 0.1 0 0-0.1 0l-0.5 0.4q-0.1 0.1-0.2 0.2-0.1 0.1-0.2 0.2-0.1 0.1-0.2 0.1-0.1 0.1-0.2 0.2-0.2 0.1-0.3 0.2-0.2 0.1-0.4 0.2-0.1 0.1-0.3 0.2-0.1 0.1-0.3 0.2-1 0.5-2.1 1-1.1 0.4-2.2 0.7-1.2 0.3-2.3 0.4-1.2 0.2-2.4 0.2-1.7 0-3.5-0.3-1.7-0.2-3.4-0.7-1.7-0.5-3.3-1.2-1.5-0.7-3-1.6-1.8-1.2-3.5-2.6-1.6-1.3-3.1-2.8-1.5-1.6-2.9-3.2-1.3-1.7-2.5-3.4c-1.8-2.5-3.2-5-4.8-7.4q-0.5-0.9-1.1-1.7-0.6-0.8-1.3-1.6-0.6-0.8-1.3-1.5-0.8-0.7-1.5-1.4-0.7-0.6-1.5-1.1-0.7-0.5-1.5-0.9-0.8-0.4-1.7-0.8-0.9-0.3-1.7-0.5-0.4-0.1-0.9-0.1-0.4 0-0.8-0.1-0.4 0-0.8 0-0.4 0-0.8 0.1-0.4 0-0.8 0.1-0.3 0.1-0.7 0.2-0.4 0.1-0.7 0.2-0.4 0.1-0.7 0.3-1.1 0.4-2.1 1.1-0.9 0.6-1.7 1.4-0.9 0.8-1.5 1.8-0.7 0.9-1.2 2-0.1 0.4-0.3 0.8-0.1 0.4-0.2 0.8-0.1 0.4-0.2 0.8-0.1 0.4-0.1 0.9c-0.1 0.2 0-0.1 0-0.3 0-0.1 0-0.4 0-0.6q0-0.3 0.1-0.7 0-0.3 0.1-0.6 0.1-0.3 0.2-0.6 0.1-0.3 0.2-0.6 0.2-0.5 0.4-0.9 0.3-0.5 0.5-0.9 0.3-0.4 0.6-0.8 0.3-0.4 0.6-0.8 0.5-0.5 1-1 0.5-0.4 1-0.8 0.6-0.4 1.2-0.7 0.6-0.4 1.2-0.6 0.3-0.2 0.7-0.3 0.4-0.2 0.8-0.3 0.3-0.1 0.7-0.2 0.4 0 0.8-0.1 0.4 0 0.8-0.1 0.5 0 0.9 0 0.4 0 0.8 0.1 0.5 0 0.9 0.1 0.9 0.2 1.8 0.5 0.9 0.4 1.7 0.8 0.8 0.4 1.6 0.9 0.8 0.6 1.5 1.2 0.8 0.6 1.5 1.4 0.7 0.7 1.4 1.5 0.7 0.8 1.3 1.6 0.6 0.8 1.1 1.7c1.6 2.4 3.1 4.9 4.8 7.4q1.2 1.7 2.5 3.4 1.4 1.6 2.9 3.1 1.5 1.5 3.1 2.8 1.6 1.4 3.4 2.5 1.4 1 3 1.7 1.6 0.7 3.2 1.2 1.7 0.5 3.4 0.8 1.7 0.2 3.4 0.2 1.2 0 2.3-0.1 1.2-0.1 2.3-0.4 1.1-0.3 2.2-0.7 1.1-0.4 2.1-0.9 0.4-0.2 0.8-0.4 0.3-0.2 0.7-0.5 0.3-0.2 0.7-0.4 0.3-0.3 0.7-0.5z"/>
		<path id="Layer" class="s2" d="m191.9 75.1c-0.4 0.4-3-1.4-6.6-1.2-3.5 0.1-6.1 2.1-6.5 1.6-0.2-0.1 0.2-1 1.3-1.9q0.6-0.4 1.2-0.7 0.6-0.4 1.3-0.6 0.6-0.3 1.3-0.4 0.7-0.1 1.4-0.1 0.7-0.1 1.4 0 0.7 0.1 1.4 0.3 0.6 0.2 1.3 0.5 0.6 0.3 1.2 0.7c1.1 0.8 1.5 1.5 1.3 1.8z"/>
		<path id="Layer" class="s2" d="m187 85.8q0 0.5-0.2 1.1-0.2 0.5-0.6 0.9-0.4 0.4-0.9 0.6-0.5 0.3-1.1 0.3-0.6 0-1.1-0.1-0.5-0.2-1-0.6-0.4-0.3-0.6-0.9-0.3-0.5-0.3-1 0-0.6 0.2-1.1 0.2-0.5 0.6-0.9 0.4-0.5 0.9-0.7 0.5-0.2 1.1-0.3 0.6 0 1.1 0.2 0.5 0.2 0.9 0.5 0.5 0.4 0.7 0.9 0.3 0.5 0.3 1.1z"/>
		<path id="Layer" class="s2" d="m196.4 35.1c2 2.2 4.9 4.3 7.8 3.8q0.5-0.1 0.8-0.3 0.4-0.1 0.8-0.2 0.4-0.2 0.8-0.3 0.4-0.2 0.8-0.4c1.1 0.6 1 4.2 0.4 5.2q-0.3 0.4-0.5 0.7-0.3 0.3-0.5 0.6-0.3 0.3-0.6 0.6-0.3 0.3-0.5 0.6c3.6 1.7 6.7 0.6 10.4-1q-0.1 2.4-0.9 4.7-0.7 2.3-2.1 4.3-1.3 2-3.1 3.7-1.8 1.6-3.9 2.7c-1.9 0.9-4.1 1.4-5.9 0.4-1.6-0.9-2.3-2.7-2.9-4.4q-0.7-2.4-1.4-4.8-0.6-2.4-1.1-4.8-0.4-2.5-0.8-4.9-0.3-2.5-0.5-5z"/>
		<path id="Layer" class="s0" d="m187.6 152.5l-1.8 11.6-3.4 13.6-15 13.7-24 0.5-24.6-15.8-1.5-26.5 10.9-3 47.1 1.4 12.3 4.5z"/>
		<path id="Layer" class="s3" d="m48 193.3q1.1-2.3 2.3-4.5 1.1-2.3 2.3-4.5 1.3-2.2 2.6-4.3 1.3-2.2 2.7-4.3 2.1-3.4 4.8-6.3 2.8-2.9 6.1-5.2 3.2-2.2 6.9-3.9 3.6-1.6 7.5-2.5l39.5-10.7c0 0 2.6 26.7 29.8 26.7 27.1 0 27.7-24.7 27.7-24.7l49.7 18.2c1.6 0.6 12.2 4.2 24.5 30.7 11.7 25.1 16.8 38 16.8 38l-46.8 12.6-3.1 43.3 1 24.2-142.9-0.4 0.8-27.6-0.6-45.7-3 5.7-44.6-17.9c0 0 4.5-13.1 16-36.9z"/>
		<path id="Layer" class="s2" d="m80 253c0.4 18.9 0.5 34.2 0.3 34.2-0.2 0-0.6-15.3-1-34.2-0.4-18.9-0.5-34.2-0.3-34.2 0.2 0 0.6 15.3 1 34.2z"/>
		<g id="Layer" style="opacity: .3">
			<path id="Layer" class="s4" d="m220.9 234.6c-0.1 15.1-1.2 37.4-5.5 50.6l-126.8 2c-3.4-17-5.7-35.4-4.7-52.6 0.2-3.4-1.1-6.9 0.9-9.6 2.8-3.8 7.9-4.7 12.5-5.3 37.3-4.7 75.1-7.9 111.9-0.3 3.2 0.7 6.7 1.5 8.9 3.9 2.7 2.9 2.8 7.3 2.8 11.3z"/>
		</g>
		<path id="Layer" class="s2" d="m226.3 203.4q0 0.1 0.1 0.2 0 0 0 0.1 0 0.1 0 0.2-0.1 0.1-0.1 0.1v1.9c0 1.6 0 3.9-0.1 6.8-0.1 5.8-0.4 13.8-0.9 22.6-0.5 8.8-1.1 16.7-1.5 22.5-0.3 2.8-0.5 5.1-0.6 6.8q-0.1 1.1-0.2 1.8 0 0.1 0 0.2 0 0.1 0 0.1 0 0.1-0.1 0.2 0 0.1 0 0.2 0-0.1 0-0.2 0-0.1 0-0.2 0 0 0-0.1 0-0.1 0-0.2c0-0.5 0-1.1 0.1-1.8 0.1-1.7 0.2-4 0.4-6.9 0.3-5.8 0.8-13.7 1.3-22.5 0.6-8.7 0.9-16.7 1.1-22.5 0.2-2.8 0.3-5.1 0.3-6.8 0-0.8 0.1-1.4 0.1-1.9q0-0.1 0-0.1 0.1-0.1 0.1-0.2 0-0.1 0-0.2 0 0 0-0.1z"/>
		<path id="Layer" class="s0" d="m267.2 237.2l19.2 38.4q0.8 1.6 1.3 3.3 0.6 1.7 1 3.5 0.4 1.7 0.5 3.5 0.2 1.8 0.1 3.6c-0.2 3.5-1.1 7-2.5 10.3-1.5 3.2-3.6 6.1-6.2 8.6-2.6 2.5-5.6 4.4-8.9 5.7-3.3 1.3-6.9 2-10.4 2l-54.9-3.2-2.4-25 41.8-10-16.2-30.6z"/>
		<path id="Layer" class="s1" d="m247.1 277.4q0.4-0.1 0.9-0.1 0.4-0.1 0.9-0.2 0.4 0 0.9 0 0.4-0.1 0.9-0.1 1.5 0 3 0 1.5 0.1 3 0.4 1.5 0.2 3 0.5 1.5 0.4 2.9 0.9 1.4 0.5 2.8 1.1 1.4 0.6 2.7 1.3 1.3 0.8 2.6 1.6 1.2 0.9 2.4 1.9 0.3 0.3 0.7 0.6 0.3 0.3 0.6 0.7 0.3 0.3 0.6 0.6 0.3 0.4 0.6 0.8c0.5 0.7 0.8 1 0.7 1.1-0.1 0.1-1.3-1.4-3.7-3.3q-1.1-0.9-2.4-1.7-1.2-0.8-2.5-1.5-1.3-0.7-2.7-1.3-1.3-0.5-2.7-1-1.4-0.5-2.8-0.8-1.5-0.4-2.9-0.7-1.5-0.2-2.9-0.3-1.5-0.2-3-0.2c-3 0-4.9 0.3-4.9 0.1 0 0 0.4-0.2 1.3-0.4z"/>
		<path id="Layer" class="s0" d="m70.4 245.7l-16.5 36.6 42.8 9.4v24.3l-74.3 0.7c-8.8 0-15.5-14.6-13.5-23.2q0.1-0.3 0.1-0.5 0.1-0.3 0.2-0.5 0.1-0.3 0.2-0.5 0-0.3 0.1-0.5c13-32.1 23.3-60.9 23.3-60.9z"/>
		<path id="Layer" class="s1" d="m21.5 288q0.3-0.3 0.7-0.6 0.4-0.2 0.7-0.5 0.4-0.3 0.7-0.5 0.4-0.3 0.8-0.5 2.5-1.6 5.3-2.8 2.7-1.1 5.6-1.8 2.9-0.6 5.9-0.8 3-0.1 6 0.2 0.4 0.1 0.8 0.2 0.5 0 0.9 0.1 0.5 0.1 0.9 0.2 0.4 0.1 0.9 0.2c0.8 0.3 1.3 0.3 1.2 0.5 0 0.1-1.8-0.3-4.8-0.5q-2.9-0.2-5.8 0-2.9 0.2-5.8 0.8-2.8 0.7-5.5 1.7-2.7 1.1-5.3 2.5c-2.5 1.5-4 2.6-4.1 2.5-0.1 0 0.3-0.4 0.9-0.9z"/>
		<path id="Layer" class="s0" d="m217.8 309.6l-8.5 0.8q-0.9 0.5-1.8 1-0.9 0.5-1.8 1-1 0.4-1.9 0.8-1 0.4-2 0.7c-4.3 1.4-6.6 0.1-11.6-3.4-3.6-2.5-9-1-9-1 0 0-10.7 4.9-16.6 6.3-2.8 0.7-3.5-0.8-3.3-2.2q0.1-0.6 0.3-1.1 0.2-0.5 0.5-1 0.4-0.5 0.8-0.8 0.4-0.4 1-0.7c4.4-2.3 17-8.9 18.8-9q-0.2-0.5-0.5-0.9-0.3-0.4-0.7-0.7-0.4-0.3-0.9-0.4-0.5-0.2-1-0.2-1.3 0-2.5 0-1.3 0-2.5 0.1-1.3 0.1-2.5 0.2-1.3 0.1-2.5 0.2c-3.1 0.5-7.6 5.1-9.6 7.4q-0.3 0.3-0.6 0.5-0.4 0.2-0.7 0.3-0.4 0.1-0.8 0.1-0.4 0-0.8-0.1v-0.1q-0.3-0.1-0.7-0.3-0.3-0.2-0.6-0.6-0.2-0.3-0.3-0.7-0.2-0.4-0.2-0.8l-0.1-1q0-0.2 0-0.3 0.1-0.2 0.1-0.4 0-0.2 0.1-0.4 0.1-0.2 0.2-0.3l0.6-1.1c-0.3 0.4-0.7 0.7-1.1 0.9-0.5 0.2-1 0.3-1.5 0.2-0.5-0.1-0.9-0.4-1.2-0.8-0.4-0.4-0.6-0.8-0.6-1.3q0-0.3 0-0.5 0-0.3 0-0.6 0.1-0.2 0.1-0.5 0.1-0.2 0.1-0.4l0.2-0.5-0.4-0.2q-0.6-0.2-1.1-0.7-0.5-0.5-0.8-1.1-0.2-0.6-0.3-1.3 0-0.7 0.2-1.4 0.1-0.1 0.2-0.2 0-0.2 0.1-0.3 0.1-0.1 0.3-0.3 0.1-0.1 0.2-0.2c3.2-2.1 19.7-13 24.2-13.8 4.9-0.8 29.2 7.9 29.2 7.9h10.8c10.9 3.1 3 23.2 3 23.2z"/>
		<path id="Layer" class="s0" d="m182.8 290.5c0 0.1-1.8-0.4-4.6-0.6q-2.8-0.2-5.5 0.3-2.7 0.4-5.3 1.5-2.5 1.1-4.8 2.8-2.2 1.6-4 3.8c-1.8 2.1-2.6 3.7-2.7 3.7q0.1-0.2 0.1-0.3 0.1-0.2 0.2-0.3 0-0.1 0.1-0.3 0.1-0.1 0.2-0.2 0.2-0.4 0.4-0.8 0.2-0.3 0.4-0.7 0.3-0.3 0.5-0.7 0.3-0.3 0.6-0.6 1.7-2.3 4-4 2.2-1.7 4.8-2.8 2.6-1.1 5.4-1.5 2.8-0.5 5.6-0.2 0.5 0 0.9 0.1 0.4 0 0.8 0.1 0.4 0.1 0.8 0.1 0.5 0.1 0.9 0.2 0.1 0.1 0.3 0.1 0.1 0.1 0.3 0.1 0.1 0 0.3 0.1 0.1 0.1 0.3 0.1z"/>
		<path id="Layer" class="s0" d="m180.2 284.6q-0.6-0.1-1.2-0.3-0.6-0.1-1.2-0.2-0.5-0.1-1.1-0.2-0.6-0.1-1.3-0.1-1.4 0-2.8 0.2-1.5 0.2-2.9 0.6-1.4 0.4-2.7 1-1.3 0.6-2.5 1.3-1.3 0.8-2.5 1.7-1.1 0.9-2.2 1.8-1.2 0.9-2.2 2-1 1-2 2l-2.5 2.6q-0.1 0.1-0.2 0.2-0.1 0.2-0.2 0.3-0.2 0.1-0.3 0.2-0.1 0.1-0.2 0.2 0.1-0.1 0.2-0.2 0-0.2 0.1-0.3 0.1-0.1 0.3-0.2 0.1-0.2 0.2-0.3c0.5-0.6 1.3-1.6 2.3-2.7q1-1.1 2-2.1 1.1-1.1 2.2-2 1.1-1 2.3-1.9 1.1-0.9 2.4-1.7 1.2-0.7 2.6-1.3 1.4-0.6 2.8-1 1.4-0.4 2.9-0.6 1.5-0.2 3-0.1 0.4 0 0.9 0.1 0.4 0 0.8 0.1 0.5 0.1 0.9 0.2 0.5 0.1 0.9 0.2 0.1 0.1 0.2 0.1 0.1 0 0.2 0.1 0.2 0 0.3 0.1 0.1 0 0.2 0.1 0 0 0.1 0 0 0 0 0 0.1 0.1 0.1 0.1 0.1 0 0.1 0z"/>
		<path id="Layer" class="s0" d="m81 287.2h10.7c0 0 24.3-8.8 29.3-7.9 4.5 0.7 20.9 11.6 24.1 13.8q0.2 0.1 0.3 0.2 0.1 0.1 0.2 0.2 0.1 0.2 0.2 0.3 0.1 0.1 0.1 0.3 0.3 0.6 0.2 1.3 0 0.7-0.3 1.3-0.3 0.7-0.7 1.1-0.5 0.5-1.2 0.8l-0.3 0.1 0.1 0.5q0.1 0.3 0.2 0.5 0 0.2 0 0.5 0.1 0.3 0.1 0.5 0 0.3 0 0.5c-0.1 0.5-0.3 1-0.6 1.4-0.3 0.4-0.8 0.6-1.3 0.7-0.4 0.1-1 0.1-1.4-0.1-0.5-0.2-0.9-0.6-1.1-1l0.6 1.1q0.1 0.2 0.2 0.4 0 0.1 0.1 0.3 0 0.2 0 0.4 0 0.2 0 0.4v1q0 0.4-0.2 0.8-0.1 0.4-0.4 0.7-0.2 0.3-0.6 0.5-0.3 0.3-0.7 0.4-0.3 0.1-0.7 0.1-0.4 0-0.8-0.1-0.4-0.1-0.7-0.3-0.3-0.2-0.6-0.4c-2.1-2.3-6.6-6.9-9.6-7.4q-1.3-0.2-2.5-0.3-1.3-0.1-2.5-0.2-1.2 0-2.5 0-1.2-0.1-2.5 0-0.5 0-1 0.1-0.5 0.2-0.9 0.5-0.4 0.2-0.7 0.6-0.3 0.4-0.5 0.9c1.8 0.2 14.4 6.7 18.8 9.1q0.6 0.2 1 0.6 0.4 0.4 0.8 0.8 0.3 0.5 0.5 1.1 0.3 0.5 0.3 1.1c0.2 1.4-0.5 2.8-3.3 2.2-5.9-1.4-16.5-6.3-16.5-6.3 0 0-5.5-1.6-9.1 0.9-5 3.6-7.3 4.9-11.6 3.4q-1-0.3-1.9-0.7-1-0.4-1.9-0.8-1-0.4-1.9-0.9-0.9-0.5-1.8-1l-8.5-0.9c0 0-7.9-20 3-23.1z"/>
		<path id="Layer" class="s0" d="m113.3 291.2q0.1-0.1 0.3-0.1 0.1-0.1 0.3-0.1 0.1-0.1 0.3-0.1 0.4-0.1 0.8-0.2 0.4-0.1 0.8-0.2 0.5 0 0.9-0.1 0.4 0 0.8-0.1 2.8-0.2 5.6 0.2 2.8 0.5 5.4 1.6 2.6 1.1 4.9 2.8 2.2 1.7 4 3.9 0.3 0.3 0.5 0.7 0.3 0.3 0.5 0.7 0.2 0.3 0.5 0.7 0.2 0.4 0.4 0.7 0.1 0.2 0.2 0.3 0 0.1 0.1 0.3 0.1 0.1 0.1 0.2 0.1 0.2 0.1 0.3c0 0.1-0.8-1.5-2.6-3.7q-1.8-2.1-4.1-3.8-2.2-1.6-4.7-2.7-2.6-1.1-5.3-1.6-2.8-0.4-5.5-0.2-0.6 0-1.2 0.1-0.6 0-1.1 0.1-0.6 0.1-1.2 0.2-0.5 0.1-1.1 0.2 0.1-0.1 0.3-0.1z"/>
		<path id="Layer" class="s0" d="m115.9 285.3q0.1-0.1 0.2-0.1 0.1-0.1 0.2-0.1 0.1-0.1 0.3-0.1 0.1 0 0.2-0.1 0.4-0.1 0.8-0.2 0.5-0.1 0.9-0.2 0.5-0.1 0.9-0.1 0.5-0.1 0.9-0.1 1.5-0.1 3 0.1 1.4 0.2 2.9 0.6 1.4 0.4 2.8 1 1.3 0.6 2.6 1.3 1.2 0.8 2.4 1.7 1.2 0.9 2.3 1.9 1.1 0.9 2.2 2 1 1 2 2.1c1 1.1 1.8 2.1 2.3 2.7q0.1 0.1 0.2 0.3 0.1 0.1 0.2 0.2 0.1 0.1 0.2 0.3 0.1 0.1 0.2 0.2-0.1-0.1-0.3-0.2-0.1-0.1-0.2-0.2-0.1-0.1-0.2-0.3-0.1-0.1-0.2-0.2l-2.5-2.6q-1-1.1-2-2.1-1.1-1-2.2-1.9-1.1-1-2.3-1.9-1.1-0.8-2.4-1.6-1.2-0.8-2.5-1.4-1.3-0.5-2.7-0.9-1.4-0.4-2.9-0.6-1.4-0.2-2.9-0.2-0.6 0-1.2 0.1-0.6 0-1.2 0.1-0.6 0.1-1.1 0.3-0.6 0.1-1.2 0.3 0 0 0.3-0.1z"/>
		<path id="Layer" class="s5" d="m95.6 316.3q-1.2-0.5-2.1-1.4-0.9-0.8-1.4-2-0.6-1.1-0.6-2.4l-3.5-84.9q0-1.3 0.5-2.6 0.4-1.2 1.4-2.2 0.9-0.9 2.1-1.5 1.2-0.5 2.6-0.5h130.5q1.3 0 2.5 0.5 1.2 0.6 2.2 1.5 0.9 1 1.4 2.2 0.4 1.3 0.4 2.6l-3.7 84.9q-0.1 1.3-0.6 2.4-0.5 1.2-1.4 2.1-0.9 0.8-2.1 1.3-1.2 0.5-2.5 0.5h-123.3q-1.3 0-2.4-0.5z"/>
		<path id="Layer" class="s2" d="m98 316.8h-0.3q-0.1 0-0.2 0-0.1 0-0.3-0.1-0.1 0-0.2 0-0.1 0-0.2 0-0.4-0.1-0.9-0.2-0.4-0.2-0.8-0.4-0.4-0.1-0.8-0.4-0.3-0.2-0.7-0.5-0.5-0.5-0.9-1.1-0.5-0.6-0.8-1.2-0.3-0.7-0.4-1.4-0.2-0.7-0.2-1.4-0.1-3.4-0.3-7.9c-0.5-11.7-1.2-28.7-2.1-49.7l-0.7-16.5q-0.2-4.3-0.3-8.8c0-0.7-0.1-1.5-0.1-2.2q0-0.3 0.1-0.6 0-0.3 0.1-0.6 0-0.3 0.1-0.6 0.1-0.2 0.2-0.5 0.3-0.6 0.6-1.1 0.3-0.5 0.7-0.9 0.4-0.4 0.9-0.8 0.5-0.4 1-0.6 0.3-0.2 0.6-0.3 0.3-0.1 0.5-0.2 0.3-0.1 0.6-0.1 0.3-0.1 0.6-0.1c0.8-0.1 1.6 0 2.4 0h34.8 90.4 3q0.4 0 0.8 0 0.4 0 0.8 0.1 0.4 0 0.8 0.1 0.3 0.1 0.7 0.3 0.7 0.2 1.4 0.7 0.6 0.4 1.2 1 0.5 0.6 0.9 1.2 0.4 0.7 0.6 1.5 0.1 0.3 0.2 0.7 0 0.4 0.1 0.8 0 0.3 0 0.7 0 0.4-0.1 0.8l-0.1 2.9c-0.1 2-0.2 4-0.3 5.9q-0.5 11.7-1 23.1c-0.6 15.1-1.3 29.7-1.9 43.6q-0.1 2.6-0.2 5.1l-0.1 2.6q0 0.3 0 0.6 0 0.4-0.1 0.7 0 0.3-0.1 0.6-0.1 0.4-0.2 0.7-0.1 0.6-0.4 1.2-0.4 0.6-0.8 1.1-0.4 0.5-0.9 0.9-0.5 0.5-1.1 0.8-0.3 0.1-0.6 0.3-0.3 0.1-0.6 0.2-0.3 0.1-0.6 0.2-0.3 0-0.6 0.1c-0.9 0.1-1.7 0-2.6 0h-19.1-34.4l-49.8-0.1-13.5-0.1h-3.6q-1.2 0-1.2 0h1.2 3.6 13.5l49.8-0.1h34.4 19.2c0.8 0 1.6 0 2.4-0.1q0.3 0 0.6-0.1 0.3-0.1 0.6-0.2 0.2 0 0.5-0.2 0.3-0.1 0.6-0.2 0.5-0.3 1-0.7 0.4-0.4 0.8-0.9 0.4-0.4 0.7-1 0.3-0.5 0.5-1.1 0-0.3 0.1-0.6 0.1-0.3 0.1-0.6 0-0.3 0.1-0.6 0-0.3 0-0.6c0-0.9 0-1.7 0.1-2.6q0.1-2.6 0.2-5.2c0.6-13.9 1.2-28.4 1.9-43.6q0.5-11.3 1-23 0.1-3 0.3-5.9l0.1-3q0-0.4 0-0.7 0-0.4 0-0.7 0-0.4-0.1-0.7-0.1-0.4-0.1-0.7-0.3-0.7-0.6-1.3-0.4-0.6-0.9-1.2-0.4-0.5-1-0.9-0.6-0.4-1.3-0.6-0.3-0.2-0.7-0.3-0.3 0-0.7-0.1-0.3 0-0.7-0.1-0.4 0-0.7 0h-3-90.5-34.8c-0.7 0-1.6 0-2.3 0q-0.3 0.1-0.5 0.1-0.3 0.1-0.6 0.2-0.3 0-0.5 0.1-0.3 0.1-0.5 0.3-0.5 0.2-1 0.5-0.4 0.4-0.8 0.8-0.4 0.4-0.7 0.8-0.3 0.5-0.5 1-0.1 0.3-0.2 0.5-0.1 0.3-0.2 0.6 0 0.2-0.1 0.5 0 0.3 0 0.5c0 0.8 0 1.5 0 2.3q0.2 4.4 0.4 8.7 0.3 8.6 0.6 16.5c0.8 21 1.5 38 2 49.8q0.1 4.4 0.3 7.8-0.1 0.7 0.1 1.4 0.1 0.7 0.4 1.3 0.3 0.7 0.7 1.3 0.4 0.5 0.9 1 0.4 0.3 0.7 0.5 0.4 0.3 0.8 0.5 0.4 0.2 0.8 0.3 0.4 0.2 0.8 0.2 1.2-0.1 1.2 0z"/>
		<path id="Layer" class="s6" d="m153.6 266.7q0.5-1.2 1.4-2.2 1-0.9 2.2-1.5 1.3-0.5 2.6-0.5c2.8 0 5.2 1.7 6.3 4.2 1 2.5 0.4 5.4-1.5 7.4-1.9 1.9-4.8 2.5-7.4 1.4-2.5-1-4.1-3.5-4.1-6.2q0-1.4 0.5-2.6z"/>
		<path id="Layer" class="s2" d="m171.2 112.2c0 0.1-0.8 0.5-2.2 0.5q-1.4-0.1-2.7-0.5-1.3-0.5-2.4-1.3-1.1-0.9-1.9-2.1-0.7-1.1-1.1-2.5c-0.4-1.4-0.2-2.2-0.1-2.2 0.1-0.1 0.3 0.8 0.8 2q0.4 1.1 1.2 2.1 0.7 1 1.7 1.8 1 0.8 2.2 1.3 1.1 0.4 2.4 0.6c1.3 0.2 2.1 0.2 2.1 0.3z"/>
	</g>
</svg>